<?xml version="1.0" standalone="no"?>
<!DOCTYPE svg PUBLIC "-//W3C//DTD SVG 20010904//EN"
 "http://www.w3.org/TR/2001/REC-SVG-20010904/DTD/svg10.dtd">
<svg version="1.0" xmlns="http://www.w3.org/2000/svg"
 width="408.000000pt" height="419.000000pt" viewBox="0 0 408.000000 419.000000"
 preserveAspectRatio="xMidYMid meet">

<g transform="translate(0.000000,419.000000) scale(0.100000,-0.100000)"
fill="#000000" stroke="none">
<path d="M3340 4159 c-57 -26 -280 -185 -295 -209 -3 -5 19 -43 48 -85 47 -66
63 -80 116 -105 116 -55 215 -184 227 -298 l6 -47 -141 -113 c-78 -62 -139
-117 -136 -122 3 -5 -4 -12 -17 -14 -102 -21 -133 -31 -156 -51 l-26 -22 -92
64 c-662 458 -1572 384 -2155 -174 -274 -263 -437 -557 -511 -925 -20 -97 -23
-144 -23 -328 0 -232 14 -336 69 -515 14 -43 24 -80 23 -81 -1 -1 -42 -23 -92
-49 -131 -70 -185 -127 -185 -198 0 -64 129 -245 201 -283 32 -16 106 -19 143
-4 14 5 52 34 86 65 33 30 63 55 67 55 5 -1 28 -28 53 -61 25 -34 97 -111 160
-173 713 -693 1873 -631 2514 134 437 521 527 1255 230 1865 -24 50 -59 115
-78 145 -25 40 -32 58 -25 70 5 8 22 35 38 60 15 25 32 45 37 45 5 0 65 32
134 72 142 81 168 90 211 73 79 -33 84 -153 15 -422 -24 -98 -58 -205 -74
-238 l-28 -60 22 0 c47 0 75 24 128 109 178 284 256 507 242 690 -11 149 -89
336 -229 553 -50 76 -63 90 -119 120 -88 46 -170 126 -198 190 -18 42 -21 64
-17 111 5 58 4 61 -41 123 -25 35 -50 64 -56 64 -6 0 -40 -14 -76 -31z m99
-55 c35 -45 28 -60 -56 -114 -43 -28 -82 -50 -87 -50 -19 0 -56 44 -56 66 0
17 18 35 77 73 42 28 83 51 89 51 7 0 22 -12 33 -26z m-264 -154 c3 -11 18
-29 33 -40 22 -18 24 -23 12 -30 -8 -6 -18 -10 -21 -10 -13 0 -61 79 -54 89
10 17 23 13 30 -9z m295 -70 c31 -81 111 -171 194 -219 l47 -28 -63 -46 -63
-45 -11 37 c-23 75 -64 139 -128 198 -36 34 -74 64 -85 68 -12 3 -21 10 -21
13 0 12 104 72 111 64 3 -4 12 -23 19 -42z m-153 -51 c1 -12 14 -39 28 -61
l27 -40 -56 39 -55 38 27 22 c15 13 27 23 27 23 1 0 1 -10 2 -21z m215 -331
c-36 -24 -42 -23 -42 6 0 13 -7 42 -15 65 l-14 41 48 -47 49 -48 -26 -17z
m336 -76 c93 -176 148 -414 125 -548 -13 -73 -33 -109 -33 -58 0 51 -30 147
-57 187 -54 78 -140 119 -330 157 -126 25 -153 39 -153 78 0 57 104 177 260
301 l65 52 41 -45 c22 -26 59 -81 82 -124z m-1655 -81 c141 -29 268 -70 396
-132 102 -48 291 -166 291 -180 0 -14 -164 -182 -269 -274 l-103 -92 -76 43
c-42 24 -103 53 -136 65 -34 12 -80 39 -102 60 -23 20 -60 49 -82 64 l-40 26
-109 -25 c-146 -35 -259 -75 -289 -102 -15 -15 -24 -34 -24 -54 l0 -30 -69 0
c-124 0 -124 0 -166 -101 -20 -49 -41 -89 -47 -89 -6 0 -28 5 -49 11 l-38 12
-111 -83 c-119 -89 -115 -82 -94 -152 4 -14 -3 -16 -42 -15 l-47 2 -58 -105
c-32 -58 -59 -114 -59 -124 0 -11 23 -107 50 -214 43 -167 49 -196 36 -206 -8
-6 -83 -65 -168 -131 -164 -128 -435 -325 -447 -325 -5 0 -18 33 -29 73 -169
574 -15 1192 403 1613 226 228 469 368 772 445 157 40 241 48 433 44 117 -2
197 -9 273 -24z m1074 -142 c-16 -33 -18 -45 -8 -65 18 -40 13 -41 -14 -2 -14
20 -25 41 -25 45 0 6 58 61 66 63 1 0 -8 -18 -19 -41z m147 -244 l31 -13 -28
-13 c-15 -7 -29 -10 -30 -8 -2 2 -23 33 -47 69 l-43 65 43 -44 c24 -24 57 -49
74 -56z m-129 -374 c91 -151 166 -343 206 -531 20 -91 23 -134 23 -320 0 -237
-12 -321 -74 -512 -58 -177 -189 -415 -292 -531 l-33 -37 -208 369 -208 369
105 368 c58 202 106 375 106 384 0 21 -61 147 -104 214 -26 40 -32 57 -23 64
26 21 438 219 459 221 4 1 23 -26 43 -58z m581 -47 c15 6 -30 -90 -60 -129
-12 -16 -11 -6 5 50 11 39 23 84 27 100 l7 30 3 -28 c2 -20 8 -27 18 -23z
m-2548 -1443 l93 -149 137 -105 c76 -58 142 -111 148 -118 11 -15 304 -616
304 -624 0 -11 -225 -4 -332 10 -351 46 -661 196 -922 445 -75 71 -196 213
-196 229 0 8 133 109 255 194 101 70 407 267 415 267 3 0 47 -67 98 -149z"/>
</g>
</svg>
